<?xml version="1.0" encoding="utf-8"?>
<!-- Generator: Adobe Illustrator 16.0.0, SVG Export Plug-In . SVG Version: 6.00 Build 0)  -->
<!DOCTYPE svg PUBLIC "-//W3C//DTD SVG 1.1//EN" "http://www.w3.org/Graphics/SVG/1.1/DTD/svg11.dtd">
<svg version="1.1" id="Layer_1" xmlns="http://www.w3.org/2000/svg" xmlns:xlink="http://www.w3.org/1999/xlink" x="0px" y="0px"
	 width="612px" height="792px" viewBox="0 0 612 792" enable-background="new 0 0 612 792" xml:space="preserve">
<g>
	<g>
		<path fill="#1C1F21" d="M256.616,571.506c-29.679,0-53.824,24.146-53.824,53.824s24.145,53.824,53.824,53.824
			c29.678,0,53.824-24.146,53.824-53.824C310.438,595.651,286.293,571.506,256.616,571.506z M256.616,649.099
			c-13.108,0-23.771-10.664-23.771-23.771c0-13.108,10.665-23.771,23.771-23.771c13.106,0,23.771,10.664,23.771,23.771
			C280.387,638.437,269.723,649.099,256.616,649.099z"/>
	</g>
</g>
<g>
	<g>
		<path fill="#1C1F21" d="M445.41,571.506c-29.679,0-53.824,24.146-53.824,53.824s24.146,53.824,53.824,53.824
			s53.824-24.146,53.824-53.824C499.232,595.651,475.088,571.506,445.41,571.506z M445.41,649.099
			c-13.107,0-23.771-10.664-23.771-23.771c0-13.108,10.665-23.771,23.771-23.771s23.771,10.664,23.771,23.771
			C469.182,638.437,458.517,649.099,445.41,649.099z"/>
	</g>
</g>
<g>
	<g>
		<path fill="#1C1F21" d="M458.661,288.129H243.327c-8.299,0-15.026,6.727-15.026,15.026c0,8.299,6.729,15.026,15.026,15.026
			h215.334c8.3,0,15.026-6.728,15.026-15.026C473.688,294.855,466.961,288.129,458.661,288.129z"/>
	</g>
</g>
<g>
	<g>
		<path fill="#1C1F21" d="M446.941,366.16H255.048c-8.299,0-15.026,6.727-15.026,15.026s6.728,15.026,15.026,15.026H446.94
			c8.299,0,15.025-6.728,15.025-15.026C461.967,372.888,455.239,366.16,446.941,366.16z"/>
	</g>
</g>
<g>
	<g>
		<path fill="#1C1F21" d="M605.237,221.179c-5.73-7.033-14.224-11.066-23.296-11.066H113.887l-9.453-45.887
			c-1.973-9.572-8.502-17.609-17.468-21.502l-65.954-28.628c-7.614-3.308-16.463,0.187-19.766,7.798
			c-3.306,7.614,0.188,16.464,7.798,19.767L75,170.289l72.706,352.93c2.864,13.899,15.243,23.988,29.435,23.988h359.988
			c8.299,0,15.026-6.729,15.026-15.026c0-8.3-6.729-15.025-15.026-15.025H177.142l-8.844-42.933h371.614
			c14.189,0,26.57-10.088,29.434-23.986l42.03-204.01C613.206,237.342,610.969,228.211,605.237,221.179z M539.912,444.173H162.107
			l-42.028-204.009l461.861,0.001L539.912,444.173z"/>
	</g>
</g>
</svg>
